<?xml version="1.0" standalone="no"?>
<!DOCTYPE svg PUBLIC "-//W3C//DTD SVG 20010904//EN"
 "http://www.w3.org/TR/2001/REC-SVG-20010904/DTD/svg10.dtd">
<svg version="1.0" xmlns="http://www.w3.org/2000/svg"
 width="96.000000pt" height="96.000000pt" viewBox="0 0 96.000000 96.000000"
 preserveAspectRatio="xMidYMid meet">

<g transform="translate(0.000000,96.000000) scale(0.100000,-0.100000)"
fill="#000000" stroke="none">
<path d="M120 351 c0 -115 2 -131 21 -155 28 -36 80 -36 108 0 19 24 21 40 21
155 l0 129 -75 0 -75 0 0 -129z"/>
<path d="M320 476 c0 -10 83 -243 95 -266 8 -15 22 -30 30 -34 31 -12 75 -6
94 13 10 10 39 80 64 155 l46 136 -59 0 c-62 0 -68 -5 -86 -82 -7 -30 -24 -38
-24 -12 0 9 -5 34 -12 55 l-11 39 -69 0 c-37 0 -68 -2 -68 -4z"/>
<path d="M710 345 c0 -122 2 -137 20 -155 26 -26 74 -26 100 0 18 18 20 33 20
155 l0 135 -70 0 -70 0 0 -135z"/>
</g>
</svg>
